<svg width="250" height="250" viewBox="0 0 250 250" fill="none" xmlns="http://www.w3.org/2000/svg">
<path d="M174.09 111.961C178.15 135.251 171.43 153.621 160.149 157.751C152.229 160.651 143.899 155.941 141.439 154.561C126.859 146.411 121.519 127.311 123.809 112.891C125.739 100.701 132.039 98.6813 136.029 87.6413C139.909 76.9013 140.749 59.9413 125.709 33.3613C112.769 74.5313 82.1092 100.051 72.6592 118.201C68.2892 126.581 61.1492 140.321 61.9992 158.541C62.2592 164.171 64.4392 194.191 89.2793 209.111C102.829 217.251 116.769 216.951 123.129 216.391C116.659 210.611 99.0392 193.311 97.6392 167.701C97.2978 160.817 98.0951 153.925 99.9992 147.301C103.263 156.983 108.569 165.85 115.559 173.301C121.419 179.501 136.559 195.511 156.559 193.211C158.919 192.931 170.75 191.321 179.37 181.441C187.44 172.201 187.8 161.331 188.04 154.131C188.72 133.711 178.89 118.371 174.09 111.961Z" fill="#FFFFFF"/>
</svg>
